<?xml version="1.0" encoding="iso-8859-1"?>
<!-- Generator: Adobe Illustrator 19.0.0, SVG Export Plug-In . SVG Version: 6.00 Build 0)  -->
<svg version="1.1" id="Capa_1" xmlns="http://www.w3.org/2000/svg" xmlns:xlink="http://www.w3.org/1999/xlink" x="0px" y="0px"
	 viewBox="0 0 488.425 488.425" style="enable-background:new 0 0 488.425 488.425;" xml:space="preserve">
<g>
	<path fill="#1ed1bb" d="M320.575,199.4l31.9-31.9l34.9-34.9l29-29l20.4,3.7l51.6-51.6l-47.2-8.5l-8.5-47.2l-51.5,51.6l3.7,20.4l-29,29
		c-85.6-69.7-212.2-64.7-292,15c-85.1,85.1-85.1,223.5,0,308.6s223.5,85.1,308.6,0c71.2-71.2,82.8-179.7,34.8-263l-36.2,36.2
		c29.7,62.8,18.7,140.3-33.2,192.2c-66,66-173.3,66-239.3,0s-66-173.3,0-239.3c60.6-60.6,156.1-65.5,222.4-14.7l-31.9,31.9
		c-48.7-33.7-115.9-28.9-159.1,14.3c-48.6,48.6-48.6,127.6,0,176.2s127.6,48.6,176.2,0c34.1-34.1,44.2-83.2,30.4-126.3l-43.2,43.2
		c-1.2,17.7-8.4,35-21.9,48.5c-29.5,29.5-77.5,29.5-107,0s-29.5-77.5,0-107c24-24,60.2-28.5,88.8-13.4l-34.3,34.3
		c-8.7-0.3-17.5,2.9-24.1,9.5c-12.7,12.7-12.7,33.4,0,46.2c12.7,12.8,33.4,12.7,46.2,0c6.6-6.6,9.8-15.4,9.5-24.1l34.3-34.3
		L320.575,199.4z"/>
</g>
<g>
</g>
<g>
</g>
<g>
</g>
<g>
</g>
<g>
</g>
<g>
</g>
<g>
</g>
<g>
</g>
<g>
</g>
<g>
</g>
<g>
</g>
<g>
</g>
<g>
</g>
<g>
</g>
<g>
</g>
</svg>
