<?xml version="1.0" standalone="no"?>
<!DOCTYPE svg PUBLIC "-//W3C//DTD SVG 20010904//EN"
 "http://www.w3.org/TR/2001/REC-SVG-20010904/DTD/svg10.dtd">
<svg version="1.0" xmlns="http://www.w3.org/2000/svg"
 width="1280.000000pt" height="930.000000pt" viewBox="0 0 1280.000000 930.000000"
 preserveAspectRatio="xMidYMid meet">
<metadata>
Created by potrace 1.15, written by Peter Selinger 2001-2017
</metadata>
<g transform="translate(0.000000,930.000000) scale(0.100000,-0.100000)"
fill="#1ed1bb" stroke="none">
<path d="M4905 9293 c-482 -57 -874 -376 -1166 -949 -78 -154 -78 -154 -124
-379 -63 -308 -85 -525 -85 -830 0 -217 12 -345 60 -635 27 -162 60 -388 60
-412 0 -4 8 -8 19 -8 16 0 19 11 24 93 10 173 33 258 239 897 145 451 365 853
574 1050 151 142 313 219 460 220 165 0 393 -110 620 -301 54 -45 128 -107
164 -137 36 -30 127 -111 204 -181 314 -286 443 -351 701 -353 102 -1 129 2
179 22 69 27 123 78 171 164 124 226 96 469 -88 749 -73 111 -102 146 -215
260 -309 314 -866 609 -1322 701 -158 32 -353 44 -475 29z"/>
<path d="M8543 8950 c-260 -36 -501 -167 -658 -358 -68 -81 -156 -251 -187
-358 -32 -109 -32 -321 0 -436 130 -473 560 -771 1052 -727 245 22 484 136
638 304 164 179 266 427 263 638 -3 251 -143 540 -338 702 -175 145 -383 226
-618 239 -49 2 -118 1 -152 -4z"/>
<path d="M11785 7283 c-12 -85 -55 -195 -135 -349 -246 -473 -445 -712 -894
-1072 -211 -170 -495 -337 -616 -363 -133 -28 -283 42 -439 207 -107 113 -147
190 -267 514 -165 445 -295 625 -509 701 -149 54 -269 17 -394 -118 -79 -85
-128 -175 -163 -298 -19 -68 -22 -103 -22 -230 1 -170 12 -233 75 -420 150
-441 443 -823 842 -1097 97 -66 201 -114 312 -144 98 -26 355 -27 475 -1 213
46 511 196 765 386 139 104 390 358 503 508 146 196 238 361 387 699 110 248
190 529 196 684 1 36 -2 149 -6 253 l-8 187 -47 0 -48 0 -7 -47z"/>
<path d="M4400 5710 c-116 -18 -216 -66 -282 -134 -45 -47 -110 -175 -129
-256 -19 -79 -16 -230 5 -325 42 -186 121 -299 353 -506 l132 -119 -177 -192
c-309 -337 -604 -638 -1177 -1203 -306 -302 -754 -755 -993 -1005 -479 -500
-594 -616 -1070 -1078 -177 -173 -322 -317 -322 -322 0 -5 46 4 103 19 172 46
505 234 1582 893 248 151 522 317 610 368 355 206 1190 699 1335 788 206 126
580 378 655 441 177 148 267 218 430 335 99 71 196 142 215 158 l34 28 96 -51
c121 -65 236 -141 326 -218 l72 -60 7 -66 7 -65 -46 -64 c-57 -80 -157 -172
-262 -242 -45 -30 -209 -120 -365 -200 -156 -80 -363 -188 -459 -239 -460
-244 -855 -435 -1180 -570 -155 -64 -215 -95 -305 -153 l-70 -46 35 -8 c85
-21 353 -20 600 1 468 41 621 66 950 156 129 35 369 100 534 145 706 191 988
316 1317 581 218 176 388 403 469 626 20 57 21 68 11 146 -14 101 -46 200 -97
297 -125 239 -564 733 -919 1035 -77 66 -176 152 -220 193 -239 221 -699 554
-910 660 -125 62 -499 211 -583 232 -92 23 -236 32 -312 20z"/>
<path d="M12230 2110 c-283 -44 -785 -120 -1115 -170 -330 -50 -746 -113 -925
-140 -179 -27 -714 -108 -1190 -180 -476 -72 -982 -148 -1125 -170 -271 -41
-1198 -181 -2115 -320 -294 -44 -652 -98 -795 -120 -248 -38 -952 -144 -2115
-320 -294 -44 -681 -103 -860 -130 -179 -27 -566 -85 -860 -130 -294 -44 -667
-101 -828 -125 -161 -25 -295 -45 -297 -45 -9 0 -5 -94 7 -177 l11 -83 52 0
c28 0 213 25 411 55 197 30 600 91 894 135 294 44 652 98 795 120 143 22 559
85 925 140 366 55 782 118 925 140 143 22 501 76 795 120 294 45 830 126 1190
180 360 54 896 135 1190 180 294 44 652 98 795 120 143 22 559 85 925 140 366
55 901 136 1190 180 289 44 824 125 1190 180 835 126 1166 176 1350 204 l145
22 3 54 c3 82 -20 214 -38 217 -8 1 -247 -34 -530 -77z"/>
</g>
</svg>
