<?xml version="1.0" encoding="iso-8859-1"?>
<!-- Generator: Adobe Illustrator 19.1.0, SVG Export Plug-In . SVG Version: 6.00 Build 0)  -->
<svg version="1.1" id="Capa_1" xmlns="http://www.w3.org/2000/svg" xmlns:xlink="http://www.w3.org/1999/xlink" x="0px" y="0px"
	 viewBox="0 0 513.32 513.32" style="enable-background:new 0 0 513.32 513.32;" xml:space="preserve">
<g>
	<g>
		<path fill="#1ed1bb" d="M451.294,89.831c-17.11-19.249-32.082-32.083-32.082-32.083C374.296,21.388,318.686,0,256.66,0
			C115.497,0,0,115.497,0,256.66s115.497,256.66,256.66,256.66s256.66-115.497,256.66-256.66
			C513.32,192.495,489.793,134.746,451.294,89.831z M220.3,47.055c0,2.139-2.139,4.278-2.139,6.416
			c-42.777,85.553-76.998,136.885-156.135,117.636C89.831,104.803,149.718,57.749,220.3,47.055L220.3,47.055z M117.636,419.211
			C72.72,380.713,42.777,322.964,42.777,256.66c0-14.972,2.139-32.083,4.278-47.055c17.11,4.278,32.082,6.416,44.916,6.416
			c87.692,0,128.33-79.137,162.551-145.44c4.278-8.555,8.555-19.249,14.972-27.805c59.887,4.278,111.22,32.082,147.579,72.72
			c14.972,17.11,29.944,40.638,29.944,68.443c0,25.666-12.833,51.332-40.638,74.859c-21.388,19.249-62.026,19.249-104.803,19.249
			c-49.193,0-102.664,0-141.163,29.944c-21.388,17.11-47.055,51.332-44.916,94.109C115.497,406.378,115.497,412.795,117.636,419.211
			z M256.66,470.543c-19.249,0-38.499-2.139-55.61-8.555c-27.805-17.11-40.638-38.499-42.777-62.026
			c-2.139-25.666,12.833-47.055,27.805-59.887c25.666-21.388,70.581-21.388,113.358-21.388c49.193,0,98.386,0,134.746-29.944
			c14.972-12.833,25.666-25.666,34.221-38.499v2.139C470.543,374.296,374.296,470.543,256.66,470.543L256.66,470.543z"/>
	</g>
</g>
<g>
</g>
<g>
</g>
<g>
</g>
<g>
</g>
<g>
</g>
<g>
</g>
<g>
</g>
<g>
</g>
<g>
</g>
<g>
</g>
<g>
</g>
<g>
</g>
<g>
</g>
<g>
</g>
<g>
</g>
</svg>
